<svg width="93" height="18" viewBox="0 0 93 18" fill="none" xmlns="http://www.w3.org/2000/svg">
<path d="M2.58123 0.548182L6.00968 4.09091H0.0712609C0.19244 3.33873 0.482639 2.62639 0.91855 2.01112C1.35446 1.39585 1.92394 0.894789 2.58123 0.548182ZM7.18944 3.86474e-07H4.75073C4.60029 3.86474e-07 4.44985 0.00818219 4.29941 0.016364L8.24252 4.09091H11.1484L7.18944 3.86474e-07ZM12.6686 3.86474e-07H9.43812L13.3971 4.09091H17.3481C17.1626 2.94715 16.5906 1.90842 15.7338 1.15938C14.877 0.410345 13.7909 -0.000459959 12.6686 3.86474e-07ZM7.50766 13.6031L11.4666 11.3531C11.5909 11.2826 11.6946 11.1789 11.7668 11.0528C11.8391 10.9267 11.8772 10.7829 11.8772 10.6364C11.8772 10.4898 11.8391 10.346 11.7668 10.2199C11.6946 10.0938 11.5909 9.99012 11.4666 9.91964L7.50766 7.66964C7.38711 7.60113 7.25137 7.56626 7.11381 7.56847C6.97624 7.57067 6.84161 7.60988 6.72318 7.68222C6.60475 7.75457 6.5066 7.85755 6.43841 7.98102C6.37022 8.1045 6.33434 8.2442 6.33431 8.38636V12.8864C6.33434 13.0285 6.37022 13.1682 6.43841 13.2917C6.5066 13.4152 6.60475 13.5182 6.72318 13.5905C6.84161 13.6628 6.97624 13.7021 7.11381 13.7043C7.25137 13.7065 7.38711 13.6716 7.50766 13.6031ZM17.4194 5.72727V13.0909C17.4183 14.3926 16.9175 15.6406 16.0268 16.561C15.1361 17.4814 13.9283 17.999 12.6686 18H4.75073C3.49107 17.999 2.28329 17.4814 1.39257 16.561C0.501852 15.6406 0.00100652 14.3926 0 13.0909V5.72727H17.4194Z" fill="white"/>
<path d="M25.8796 12.6113H29.0972V14.8935H23V4.16736H25.8796V12.6113Z" fill="white"/>
<path d="M35.1827 15C34.213 15 33.3217 14.7667 32.5088 14.3001C31.6958 13.8234 31.0494 13.1692 30.5694 12.3375C30.0993 11.4956 29.8642 10.5473 29.8642 9.49239C29.8642 8.43753 30.0993 7.49424 30.5694 6.66252C31.0494 5.82065 31.6958 5.16644 32.5088 4.69986C33.3217 4.23329 34.213 4 35.1827 4C36.1622 4 37.0535 4.23329 37.8566 4.69986C38.6696 5.16644 39.3111 5.82065 39.7813 6.66252C40.2514 7.49424 40.4865 8.43753 40.4865 9.49239C40.4865 10.5473 40.2514 11.4956 39.7813 12.3375C39.3111 13.1692 38.6696 13.8234 37.8566 14.3001C37.0437 14.7667 36.1524 15 35.1827 15ZM35.1827 12.231C35.9173 12.231 36.4952 11.9825 36.9164 11.4855C37.3473 10.9885 37.5628 10.3241 37.5628 9.49239C37.5628 8.64039 37.3473 7.97095 36.9164 7.48409C36.4952 6.98709 35.9173 6.73859 35.1827 6.73859C34.4383 6.73859 33.8555 6.98709 33.4344 7.48409C33.0132 7.97095 32.8026 8.64039 32.8026 9.49239C32.8026 10.3343 33.0132 11.0037 33.4344 11.5007C33.8555 11.9876 34.4383 12.231 35.1827 12.231Z" fill="white"/>
<path d="M47.026 14.8935L44.9691 10.9378H44.6606V14.8935H41.781V4.16736H46.3208C47.1534 4.16736 47.8586 4.3195 48.4364 4.62379C49.0143 4.91793 49.4502 5.32872 49.744 5.85615C50.0379 6.37344 50.1848 6.95666 50.1848 7.60581C50.1848 8.3361 49.9889 8.98018 49.5971 9.53804C49.2151 10.0858 48.6519 10.4763 47.9075 10.7095L50.2436 14.8935H47.026ZM44.6606 8.89903H46.0857C46.4775 8.89903 46.7714 8.80267 46.9673 8.60996C47.1631 8.41724 47.2611 8.13831 47.2611 7.77317C47.2611 7.42831 47.1582 7.15952 46.9526 6.9668C46.7567 6.76395 46.4677 6.66252 46.0857 6.66252H44.6606V8.89903Z" fill="white"/>
<path d="M55.5934 4.16736C56.6806 4.16736 57.6306 4.39557 58.4436 4.85201C59.2664 5.29829 59.8981 5.92716 60.3389 6.73859C60.7796 7.55002 61 8.4781 61 9.52282C61 10.5574 60.7747 11.4804 60.3242 12.2918C59.8834 13.1033 59.2517 13.7423 58.4289 14.2089C57.616 14.6653 56.6708 14.8935 55.5934 14.8935H51.4943V4.16736H55.5934ZM55.373 12.2614C56.2153 12.2614 56.8765 12.0231 57.3564 11.5463C57.8363 11.0696 58.0763 10.3951 58.0763 9.52282C58.0763 8.64039 57.8363 7.96081 57.3564 7.48409C56.8765 6.99723 56.2153 6.7538 55.373 6.7538H54.3739V12.2614H55.373Z" fill="white"/>
<path d="M69.3739 4V5.7808H65.0704V8.60172H68.3683V10.351H65.0704V15H63V4H69.3739Z" fill="#79C142"/>
<path d="M72.9125 4V15H70.842V4H72.9125Z" fill="#79C142"/>
<path d="M77.0285 13.2507H80.4298V15H74.958V4H77.0285V13.2507Z" fill="#79C142"/>
<path d="M93 4V15H90.9296V7.84527L88.1641 15H86.5965L83.8162 7.84527V15H81.7458V4H84.0972L87.3803 12.1791L90.6634 4H93Z" fill="#79C142"/>
</svg>
